<svg width="43" height="43" viewBox="0 0 43 43" fill="none" xmlns="http://www.w3.org/2000/svg">
<path d="M21.4997 3.58331C11.6097 3.58331 3.58301 11.61 3.58301 21.5C3.58301 31.39 11.6097 39.4166 21.4997 39.4166C31.3897 39.4166 39.4163 31.39 39.4163 21.5C39.4163 11.61 31.3897 3.58331 21.4997 3.58331ZM13.1684 33.1458C15.5155 31.4616 18.3822 30.4583 21.4997 30.4583C24.6172 30.4583 27.4838 31.4616 29.8309 33.1458C27.4838 34.83 24.6172 35.8333 21.4997 35.8333C18.3822 35.8333 15.5155 34.83 13.1684 33.1458ZM32.5005 30.6733C29.3622 28.2111 25.4886 26.8728 21.4997 26.8728C17.5107 26.8728 13.6371 28.2111 10.4988 30.6733C8.34332 28.1029 7.1633 24.8546 7.16634 21.5C7.16634 13.5808 13.5805 7.16665 21.4997 7.16665C29.4188 7.16665 35.833 13.5808 35.833 21.5C35.833 24.9937 34.5788 28.1829 32.5005 30.6733Z" fill="#F79969"/>
<path d="M21.5003 10.75C18.0424 10.75 15.2295 13.5629 15.2295 17.0208C15.2295 20.4788 18.0424 23.2917 21.5003 23.2917C24.9582 23.2917 27.7712 20.4788 27.7712 17.0208C27.7712 13.5629 24.9582 10.75 21.5003 10.75ZM21.5003 19.7083C20.0132 19.7083 18.8128 18.5079 18.8128 17.0208C18.8128 15.5338 20.0132 14.3333 21.5003 14.3333C22.9874 14.3333 24.1878 15.5338 24.1878 17.0208C24.1878 18.5079 22.9874 19.7083 21.5003 19.7083Z" fill="#F79969"/>
</svg>
