<svg width="17" height="17" viewBox="0 0 17 17" fill="none" xmlns="http://www.w3.org/2000/svg">
<path d="M17 7.34084V9.65916C17 9.98101 16.8873 10.2546 16.6619 10.48C16.4365 10.7054 16.1629 10.8181 15.8411 10.8181H10.8181V15.8411C10.8181 16.1629 10.7054 16.4365 10.48 16.6619C10.2546 16.8873 9.98101 17 9.65916 17H7.34084C7.01899 17 6.74537 16.8873 6.51998 16.6619C6.29459 16.4365 6.1819 16.1629 6.1819 15.8411V10.8181H1.15894C0.837085 10.8181 0.563466 10.7054 0.33808 10.48C0.112693 10.2546 0 9.98101 0 9.65916V7.34084C0 7.01899 0.112693 6.74537 0.33808 6.51998C0.563466 6.29459 0.837085 6.1819 1.15894 6.1819H6.1819V1.15894C6.1819 0.837085 6.29459 0.563466 6.51998 0.33808C6.74537 0.112693 7.01899 0 7.34084 0H9.65916C9.98101 0 10.2546 0.112693 10.48 0.33808C10.7054 0.563466 10.8181 0.837085 10.8181 1.15894V6.1819H15.8411C16.1629 6.1819 16.4365 6.29459 16.6619 6.51998C16.8873 6.74537 17 7.01899 17 7.34084Z" fill="#F79969"/>
</svg>
