<svg width="15" height="15" viewBox="0 0 15 15" fill="none" xmlns="http://www.w3.org/2000/svg">
<path d="M13.944 1.0556C12.715 -0.174334 11.792 0.00977317 11.792 0.00977317L6.63407 5.16818L0.860793 10.9411L0 15L4.05936 14.1391L9.83265 8.36789L14.9906 3.20948C14.9897 3.20948 15.1747 2.28639 13.944 1.0556ZM3.81817 13.6516L2.43408 13.9499C2.28091 13.6559 2.08246 13.3879 1.84602 13.1555C1.61347 12.9191 1.34548 12.7204 1.0517 12.5665L1.35 11.1832L1.75056 10.7834C1.75056 10.7834 2.50312 10.7988 3.35368 11.6494C4.2034 12.4984 4.21959 13.2527 4.21959 13.2527L3.81817 13.6516Z" fill="#E67F44"/>
</svg>
