<svg width="29" height="22" viewBox="0 0 29 22" fill="none" xmlns="http://www.w3.org/2000/svg">
<path d="M0 3.625C0 2.66359 0.381919 1.74156 1.06174 1.06174C1.74156 0.381918 2.66359 0 3.625 0H25.375C26.3364 0 27.2584 0.381918 27.9383 1.06174C28.6181 1.74156 29 2.66359 29 3.625V18.125C29 19.0864 28.6181 20.0084 27.9383 20.6883C27.2584 21.3681 26.3364 21.75 25.375 21.75H3.625C2.66359 21.75 1.74156 21.3681 1.06174 20.6883C0.381919 20.0084 0 19.0864 0 18.125V3.625ZM3.625 1.8125C3.14429 1.8125 2.68328 2.00346 2.34337 2.34337C2.00346 2.68328 1.8125 3.14429 1.8125 3.625V5.4375H27.1875V3.625C27.1875 3.14429 26.9965 2.68328 26.6566 2.34337C26.3167 2.00346 25.8557 1.8125 25.375 1.8125H3.625ZM27.1875 9.0625H1.8125V18.125C1.8125 18.6057 2.00346 19.0667 2.34337 19.4066C2.68328 19.7465 3.14429 19.9375 3.625 19.9375H25.375C25.8557 19.9375 26.3167 19.7465 26.6566 19.4066C26.9965 19.0667 27.1875 18.6057 27.1875 18.125V9.0625Z" fill="#FF9B62"/>
<path d="M3.625 14.5C3.625 14.0193 3.81596 13.5583 4.15587 13.2184C4.49578 12.8785 4.9568 12.6875 5.4375 12.6875H7.25C7.7307 12.6875 8.19172 12.8785 8.53163 13.2184C8.87154 13.5583 9.0625 14.0193 9.0625 14.5V16.3125C9.0625 16.7932 8.87154 17.2542 8.53163 17.5941C8.19172 17.934 7.7307 18.125 7.25 18.125H5.4375C4.9568 18.125 4.49578 17.934 4.15587 17.5941C3.81596 17.2542 3.625 16.7932 3.625 16.3125V14.5Z" fill="#FF9B62"/>
</svg>
