<svg width="28" height="31" viewBox="0 0 28 31" fill="none" xmlns="http://www.w3.org/2000/svg">
<path d="M0 28.0938C0 29.6982 1.34375 31 3 31H25C26.6562 31 28 29.6982 28 28.0938V11.625H0V28.0938ZM4 16.4688C4 15.9359 4.45 15.5 5 15.5H23C23.55 15.5 24 15.9359 24 16.4688V20.3438C24 20.8766 23.55 21.3125 23 21.3125H5C4.45 21.3125 4 20.8766 4 20.3438V16.4688ZM25 3.875H22V0.96875C22 0.435937 21.55 0 21 0H19C18.45 0 18 0.435937 18 0.96875V3.875H10V0.96875C10 0.435937 9.55 0 9 0H7C6.45 0 6 0.435937 6 0.96875V3.875H3C1.34375 3.875 0 5.17676 0 6.78125V9.6875H28V6.78125C28 5.17676 26.6562 3.875 25 3.875Z" fill="#08D0C6"/>
</svg>
