<svg width="20" height="24" viewBox="0 0 20 24" fill="none" xmlns="http://www.w3.org/2000/svg">
<path d="M9.84585 18.8462C10.1856 18.8462 10.4613 18.5705 10.4613 18.2308V9.61538C10.4613 9.2757 10.1856 9 9.84588 9C9.5062 9 9.23047 9.2757 9.23047 9.61538V18.2308C9.23047 18.5705 9.50617 18.8462 9.84585 18.8462Z" fill="#E77F44"/>
<path d="M13.5373 18.8462C13.8769 18.8462 14.1526 18.5705 14.1526 18.2308V9.61538C14.1526 9.2757 13.8769 9 13.5373 9C13.1976 9 12.9219 9.2757 12.9219 9.61538V18.2308C12.9219 18.5705 13.1975 18.8462 13.5373 18.8462Z" fill="#E77F44"/>
<path d="M6.15444 18.8462C6.49412 18.8462 6.76983 18.5705 6.76983 18.2308V9.61538C6.76983 9.2757 6.49412 9 6.15444 9C5.81476 9 5.53906 9.2757 5.53906 9.61538V18.2308C5.53906 18.5705 5.81474 18.8462 6.15444 18.8462Z" fill="#E77F44"/>
<path d="M18.4615 2.46155H14.7692V1.23076C14.7692 0.551375 14.2179 0 13.5385 0H6.15385C5.47446 0 4.92305 0.550169 4.92305 1.23076V2.46153H1.23076C0.551375 2.46153 0 3.0129 0 3.69229V4.92305C0 5.60244 0.551375 6.15382 1.23076 6.15382V21.5384C1.23076 22.8972 2.33231 23.9999 3.69232 23.9999L16 24C17.3588 24 18.4615 22.8985 18.4615 21.5384V6.15385C19.1409 6.15385 19.6923 5.6037 19.6923 4.92308V3.69232C19.6923 3.01293 19.1409 2.46155 18.4615 2.46155ZM6.15385 1.79137C6.15385 1.45169 6.42955 1.17599 6.76923 1.17599H12.9231C13.2628 1.17599 13.5385 1.45169 13.5385 1.79137V2.40675C12.9428 2.40675 6.15385 2.40675 6.15385 2.40675V1.79137ZM17.2308 21.5385C17.2308 22.2179 16.6794 22.7692 16 22.7692H3.69232C3.0129 22.7692 2.46153 22.2179 2.46153 21.5385V6.15385C3.30707 6.15385 16.5391 6.15385 17.2308 6.15385V21.5385H17.2308ZM17.8461 4.92308H1.84615C1.50646 4.92308 1.23076 4.64738 1.23076 4.30773C1.23076 3.96805 1.50646 3.69235 1.84615 3.69235H17.8462C18.1858 3.69235 18.4615 3.96805 18.4615 4.30773C18.4615 4.64738 18.1858 4.92308 17.8461 4.92308Z" fill="#E77F44"/>
</svg>
