<svg width="34" height="34" viewBox="0 0 34 34" fill="none" xmlns="http://www.w3.org/2000/svg">
<path d="M32.7787 15.063L18.8691 1.22133C18.0549 0.407109 16.9693 0 15.8158 0L4.41676 0.339258C2.24551 0.407109 0.481372 2.17125 0.41352 4.34249L0.00641167 15.7415C-0.0614398 16.895 0.413521 17.9806 1.22774 18.7949L15.1373 32.7044C15.9515 33.5186 16.9693 33.9257 18.0549 33.9257C19.1405 33.9257 20.2262 33.5186 20.9725 32.7044L32.7787 20.8983C33.5929 20.084 34 19.0663 34 17.9806C33.9321 16.895 33.525 15.8772 32.7787 15.063ZM30.811 18.9984L19.0727 30.8046C18.5299 31.3474 17.5799 31.3474 17.0371 30.8046L3.19543 16.895C2.92402 16.6236 2.78832 16.2165 2.78832 15.8772L3.12758 4.4782C3.12758 3.73183 3.73824 3.12117 4.48461 3.12117L15.8837 2.71406C16.2908 2.71406 16.63 2.84976 16.9014 3.12117L30.811 16.9629C31.0824 17.2343 31.2181 17.5735 31.2181 17.9806C31.2181 18.3877 31.0824 18.727 30.811 18.9984Z" fill="white"/>
<path d="M12.9666 22.8662C12.6952 22.5948 12.2881 22.5948 12.0167 22.8662C11.7453 23.1376 11.7453 23.5447 12.0167 23.8161L13.3737 25.1731C13.5094 25.3088 13.713 25.3767 13.8487 25.3767C13.9844 25.3767 14.1879 25.3088 14.3236 25.1731C14.595 24.9017 14.595 24.4946 14.3236 24.2232L12.9666 22.8662ZM25.3834 20.6271L18.5304 27.4801C18.259 27.7515 17.8519 27.7515 17.5805 27.4801L15.9521 25.8517C15.6807 25.5802 15.2736 25.5802 15.0021 25.8517C14.7307 26.1231 14.7307 26.5302 15.0021 26.8016L16.6306 28.43C17.0377 28.8371 17.5805 29.0407 18.0555 29.0407C18.5983 29.0407 19.0732 28.8371 19.4803 28.43L26.3333 21.577C26.6047 21.3056 26.6047 20.8985 26.3333 20.6271C26.0619 20.3557 25.6548 20.3557 25.3834 20.6271ZM12.6952 7.0568C11.9488 6.31043 10.9311 5.90332 9.91329 5.90332C8.89551 5.90332 7.87774 6.31043 7.13138 7.0568C5.57079 8.61738 5.57079 11.1279 7.13138 12.6885C7.87774 13.4348 8.89551 13.8419 9.91329 13.8419C10.9311 13.8419 11.9488 13.4348 12.6952 12.6885C14.2558 11.06 14.2558 8.54953 12.6952 7.0568ZM10.7954 10.7208C10.3204 11.1957 9.50618 11.1957 9.03122 10.7208C8.55626 10.2458 8.55626 9.4316 9.03122 8.95664C9.23477 8.75308 9.57403 8.61738 9.91329 8.61738C10.2525 8.61738 10.5918 8.75308 10.7954 8.95664C11.2703 9.4316 11.2703 10.2458 10.7954 10.7208Z" fill="white"/>
</svg>
