<svg width="34" height="36" viewBox="0 0 34 36" fill="none" xmlns="http://www.w3.org/2000/svg">
<path d="M17 19.0519C17.5636 19.0519 18.1041 18.8289 18.5026 18.4319C18.9011 18.0349 19.125 17.4964 19.125 16.935V2.11688C19.125 1.55544 18.9011 1.01701 18.5026 0.620018C18.1041 0.223027 17.5636 0 17 0C16.4364 0 15.8959 0.223027 15.4974 0.620018C15.0989 1.01701 14.875 1.55544 14.875 2.11688V16.935C14.875 17.4964 15.0989 18.0349 15.4974 18.4319C15.8959 18.8289 16.4364 19.0519 17 19.0519ZM23.375 3.36583V8.10763C25.8057 9.50562 27.7054 11.6635 28.7794 14.2467C29.8535 16.8298 30.042 19.6939 29.3155 22.3946C28.5891 25.0953 26.9884 27.4817 24.7617 29.1838C22.535 30.8859 19.8067 31.8085 17 31.8085C14.1933 31.8085 11.465 30.8859 9.23831 29.1838C7.0116 27.4817 5.4109 25.0953 4.68447 22.3946C3.95804 19.6939 4.14648 16.8298 5.22056 14.2467C6.29464 11.6635 8.19433 9.50562 10.625 8.10763V3.36583C6.96776 4.83961 3.93891 7.53464 2.05755 10.9891C0.176194 14.4435 -0.440538 18.4422 0.313054 22.2999C1.06665 26.1576 3.14364 29.6341 6.18808 32.1336C9.23252 34.6331 13.0549 36 17 36C20.9452 36 24.7675 34.6331 27.8119 32.1336C30.8564 29.6341 32.9334 26.1576 33.6869 22.2999C34.4405 18.4422 33.8238 14.4435 31.9424 10.9891C30.0611 7.53464 27.0322 4.83961 23.375 3.36583Z" fill="#09D1C6"/>
</svg>
