<svg width="27" height="27" viewBox="0 0 27 27" fill="none" xmlns="http://www.w3.org/2000/svg">
<path d="M4.31425 15.5373C4.11427 15.7784 4.02052 16.0871 4.02886 16.4635C4.03719 16.8398 4.15801 17.1486 4.38508 17.3896C4.61214 17.6307 4.91629 17.7512 5.29751 17.7512H8.03063C7.9348 18.0409 7.87856 18.32 7.85981 18.5885C7.84106 18.8592 7.84106 19.1383 7.85981 19.4259C7.85981 20.5444 7.98897 21.5996 8.2452 22.5913C8.50143 23.5851 8.85765 24.5049 9.31386 25.3528H3.64555C2.62063 25.3147 1.76653 24.9489 1.08325 24.2533C0.399969 23.5576 0.0395803 22.6928 0 21.6524V3.70037C0.0374971 2.66004 0.397886 1.78886 1.08325 1.08474C1.76653 0.380609 2.62063 0.0190305 3.64555 0H19.5089C20.5338 0.0190305 21.3921 0.380609 22.0858 1.08474C22.7795 1.78886 23.1357 2.66004 23.1545 3.70037V8.50027C22.6045 8.22962 21.9921 8.0372 21.3171 7.92302C20.6422 7.80672 19.9839 7.7602 19.3381 7.77923H19.1381C19.0423 7.58681 18.9152 7.44303 18.7527 7.34576C18.5902 7.24849 18.4152 7.20197 18.2257 7.20197H4.9267C4.64131 7.20197 4.38925 7.29924 4.1726 7.49166C3.95386 7.68408 3.84554 7.96319 3.84554 8.329C3.84554 8.69481 3.95386 8.98026 4.1726 9.18114C4.39133 9.38413 4.64339 9.53215 4.9267 9.62941H13.3281C12.2261 10.2659 11.272 11.0461 10.4659 11.9702C9.65759 12.8963 9.02847 13.9641 8.57225 15.18H5.29751C4.84129 15.1757 4.51424 15.2963 4.31425 15.5373ZM24.7356 13.8457C26.1876 15.2519 26.9438 17.045 27 19.2229C26.9438 21.4198 26.1876 23.251 24.7356 24.7163C23.2836 26.1817 21.4838 26.9429 19.3381 27C17.1737 26.9429 15.3696 26.1627 13.926 24.6593C12.4824 23.1558 11.7324 21.3437 11.6762 19.225C11.7324 17.1443 12.4824 15.3745 13.926 13.9197C15.3696 12.465 17.1737 11.708 19.3381 11.6509C21.4838 11.708 23.2836 12.4396 24.7356 13.8457ZM24.0961 21.479C24.3044 21.2676 24.4085 21.016 24.4085 20.7284C24.4085 20.4408 24.3044 20.185 24.0961 19.963C23.8877 19.7409 23.6398 19.6204 23.3565 19.6014H19.511V15.5225C19.511 15.2328 19.4006 14.9833 19.1839 14.7719C18.9652 14.5604 18.7131 14.4547 18.4298 14.4547C18.1465 14.4547 17.8924 14.5604 17.6757 14.7719C17.457 14.9833 17.3382 15.2349 17.3195 15.5225V20.7263C17.3382 21.016 17.457 21.2655 17.6757 21.4769C17.8945 21.6884 18.1465 21.8047 18.4298 21.8237H23.3565C23.6398 21.8068 23.8857 21.6905 24.0961 21.479Z" fill="white"/>
</svg>
