<svg width="27" height="30" viewBox="0 0 27 30" fill="none" xmlns="http://www.w3.org/2000/svg">
<path d="M19.5382 12.7537C19.3251 12.7537 19.0409 12.6826 18.8277 12.5405L7.17509 5.86158C6.46456 5.43526 6.25141 4.58263 6.67772 3.94316C7.10404 3.23263 7.95667 3.01947 8.59614 3.44579L20.2488 10.1247C20.9593 10.5511 21.1725 11.4037 20.7461 12.0432C20.533 12.5405 20.0356 12.7537 19.5382 12.7537Z" fill="white"/>
<path d="M13.5 29.6645C12.7895 29.6645 12.0789 29.4513 11.4395 29.0961L2.06053 23.7671C0.781579 23.0566 -3.33059e-08 21.7066 0 20.2145V9.48553C0 7.99342 0.781579 6.64342 2.06053 5.9329L11.4395 0.532895C12.7184 -0.177632 14.2816 -0.177632 15.5605 0.532895L24.9395 5.9329C26.2184 6.64342 27 7.99342 27 9.48553V20.2145C27 21.7066 26.2184 23.0566 24.9395 23.7671L15.5605 29.0961C14.9211 29.4513 14.2105 29.6645 13.5 29.6645ZM13.5 2.80658C13.2868 2.80658 13.0737 2.87763 12.8605 2.94868L3.48158 8.34869C3.05526 8.56184 2.84211 8.98816 2.84211 9.48553V20.2145C2.84211 20.6408 3.05526 21.0671 3.48158 21.2803L12.8605 26.6803C13.2868 26.8934 13.7132 26.8934 14.1395 26.6803L23.5184 21.2803C23.8737 21.0671 24.1579 20.6408 24.1579 20.2145V9.48553C24.1579 9.05921 23.9447 8.6329 23.5184 8.41974L14.1395 3.01974C13.9263 2.87763 13.7132 2.80658 13.5 2.80658Z" fill="white"/>
<path d="M13.4999 16.2354C13.2868 16.2354 13.0026 16.1643 12.7894 16.0222L1.06572 9.27222C0.355189 8.84591 0.142031 7.99328 0.568346 7.3538C0.994662 6.64327 1.84729 6.43012 2.48677 6.85643L13.4999 13.2512L24.5131 6.85643C25.2236 6.43012 26.0762 6.71433 26.4315 7.3538C26.8578 8.06433 26.5736 8.91696 25.9341 9.27222L14.2105 16.0933C13.9973 16.2354 13.7131 16.2354 13.4999 16.2354Z" fill="white"/>
</svg>
