<svg width="34" height="32" viewBox="0 0 34 32" fill="none" xmlns="http://www.w3.org/2000/svg">
<path d="M24.1158 9.979C21.488 9.979 19.2876 11.742 18.5658 14.1369H0V17.4632H18.5658C19.2876 19.8582 21.488 21.6211 24.1158 21.6211C26.7436 21.6211 28.9439 19.8582 29.6657 17.4632H33.2632V14.1369H29.6657C28.9439 11.742 26.7436 9.979 24.1158 9.979ZM24.1158 18.2948C22.7404 18.2948 21.6211 17.1755 21.6211 15.8001C21.6211 14.4246 22.7404 13.3053 24.1158 13.3053C25.4912 13.3053 26.6105 14.4246 26.6105 15.8001C26.6105 17.1755 25.4912 18.2948 24.1158 18.2948Z" fill="#08D0C6"/>
<path d="M14.9684 0C12.3406 0 10.1403 1.76295 9.41846 4.15789H0V7.48421H9.41846C10.1403 9.87916 12.3406 11.6421 14.9684 11.6421C17.5962 11.6421 19.7966 9.87916 20.5184 7.48421H33.2632V4.15789H20.5184C19.7966 1.76295 17.5962 0 14.9684 0ZM14.9684 8.31579C13.593 8.31579 12.4737 7.19648 12.4737 5.82105C12.4737 4.44562 13.593 3.32632 14.9684 3.32632C16.3439 3.32632 17.4632 4.44562 17.4632 5.82105C17.4632 7.19648 16.3439 8.31579 14.9684 8.31579ZM9.14737 19.9579C6.51958 19.9579 4.31922 21.7208 3.59741 24.1158H0V27.4421H3.59741C4.31922 29.8371 6.51958 31.6 9.14737 31.6C11.7752 31.6 13.9755 29.8371 14.6973 27.4421H33.2632V24.1158H14.6973C13.9755 21.7208 11.7752 19.9579 9.14737 19.9579ZM9.14737 28.2737C7.77194 28.2737 6.65263 27.1544 6.65263 25.7789C6.65263 24.4035 7.77194 23.2842 9.14737 23.2842C10.5228 23.2842 11.6421 24.4035 11.6421 25.7789C11.6421 27.1544 10.5228 28.2737 9.14737 28.2737Z" fill="#08D0C6"/>
</svg>
