<svg width="22" height="23" viewBox="0 0 22 23" fill="none" xmlns="http://www.w3.org/2000/svg">
<path d="M11 12.172C11.3647 12.172 11.7144 12.0295 11.9723 11.7759C12.2301 11.5223 12.375 11.1783 12.375 10.8196V1.35245C12.375 0.993756 12.2301 0.649756 11.9723 0.396123C11.7144 0.14249 11.3647 0 11 0C10.6353 0 10.2856 0.14249 10.0277 0.396123C9.76987 0.649756 9.625 0.993756 9.625 1.35245V10.8196C9.625 11.1783 9.76987 11.5223 10.0277 11.7759C10.2856 12.0295 10.6353 12.172 11 12.172ZM15.125 2.15039V5.17988C16.6978 6.07304 17.927 7.4517 18.622 9.10205C19.317 10.7524 19.4389 12.5822 18.9689 14.3076C18.4988 16.0331 17.4631 17.5578 16.0223 18.6452C14.5815 19.7327 12.8161 20.3221 11 20.3221C9.1839 20.3221 7.41854 19.7327 5.97773 18.6452C4.53691 17.5578 3.50117 16.0331 3.03113 14.3076C2.56108 12.5822 2.68301 10.7524 3.37801 9.10205C4.073 7.4517 5.30221 6.07304 6.87501 5.17988V2.15039C4.50855 3.09197 2.54871 4.8138 1.33136 7.02078C0.114008 9.22777 -0.285054 11.7825 0.202564 14.2471C0.690183 16.7118 2.03412 18.9329 4.00405 20.5298C5.97398 22.1267 8.44726 23 11 23C13.5527 23 16.026 22.1267 17.9959 20.5298C19.9659 18.9329 21.3098 16.7118 21.7974 14.2471C22.2851 11.7825 21.886 9.22777 20.6686 7.02078C19.4513 4.8138 17.4914 3.09197 15.125 2.15039Z" fill="#E77F44"/>
</svg>
