<svg width="20" height="20" viewBox="0 0 20 20" fill="none" xmlns="http://www.w3.org/2000/svg">
<path d="M18.7706 8.62479L10.8053 0.69841C10.3391 0.232152 9.71738 -0.000976562 9.05685 -0.000976562L2.52924 0.193298C1.28588 0.232153 0.275655 1.24238 0.2368 2.48573L0.00367161 9.01334C-0.0351832 9.67387 0.236801 10.2956 0.703059 10.7618L8.6683 18.727C9.13456 19.1933 9.71738 19.4264 10.3391 19.4264C10.9607 19.4264 11.5824 19.1933 12.0098 18.727L18.7706 11.9663C19.2368 11.5001 19.4699 10.9172 19.4699 10.2956C19.4311 9.67388 19.198 9.09105 18.7706 8.62479ZM17.6438 10.8784L10.9219 17.6391C10.611 17.95 10.0671 17.95 9.75623 17.6391L1.82985 9.67387C1.67443 9.51846 1.59672 9.28533 1.59672 9.09105L1.79099 2.56344C1.79099 2.13604 2.14069 1.78635 2.56809 1.78635L9.0957 1.55322C9.32883 1.55322 9.5231 1.63093 9.67852 1.78635L17.6438 9.71273C17.7992 9.86815 17.8769 10.0624 17.8769 10.2956C17.8769 10.5287 17.7992 10.723 17.6438 10.8784Z" fill="#E77F44"/>
<path d="M7.42582 13.0931C7.2704 12.9377 7.03728 12.9377 6.88186 13.0931C6.72644 13.2485 6.72644 13.4816 6.88186 13.6371L7.65895 14.4142C7.73666 14.4919 7.85323 14.5307 7.93094 14.5307C8.00865 14.5307 8.12521 14.4919 8.20292 14.4142C8.35834 14.2587 8.35834 14.0256 8.20292 13.8702L7.42582 13.0931ZM14.5363 11.8109L10.6119 15.7352C10.4565 15.8906 10.2234 15.8906 10.068 15.7352L9.13544 14.8027C8.98002 14.6473 8.74689 14.6473 8.59147 14.8027C8.43605 14.9581 8.43605 15.1913 8.59147 15.3467L9.52398 16.2792C9.75711 16.5123 10.068 16.6289 10.3399 16.6289C10.6508 16.6289 10.9228 16.5123 11.1559 16.2792L15.0802 12.3549C15.2356 12.1994 15.2356 11.9663 15.0802 11.8109C14.9248 11.6555 14.6917 11.6555 14.5363 11.8109ZM7.2704 4.03993C6.843 3.61252 6.26018 3.37939 5.67736 3.37939C5.09453 3.37939 4.51171 3.61252 4.08431 4.03993C3.19065 4.93359 3.19065 6.37122 4.08431 7.26488C4.51171 7.69228 5.09453 7.92541 5.67736 7.92541C6.26018 7.92541 6.843 7.69228 7.2704 7.26488C8.16407 6.33236 8.16407 4.89473 7.2704 4.03993ZM6.18247 6.13809C5.91049 6.41007 5.44423 6.41007 5.17224 6.13809C4.90026 5.8661 4.90026 5.39985 5.17224 5.12786C5.28881 5.0113 5.48308 4.93359 5.67736 4.93359C5.87163 4.93359 6.0659 5.0113 6.18247 5.12786C6.45445 5.39985 6.45445 5.8661 6.18247 6.13809Z" fill="#E77F44"/>
</svg>
