<svg width="24" height="24" viewBox="0 0 24 24" fill="none" xmlns="http://www.w3.org/2000/svg">
<path d="M3.83489 13.8109C3.65713 14.0252 3.5738 14.2996 3.58121 14.6342C3.58861 14.9688 3.69601 15.2432 3.89785 15.4574C4.09968 15.6717 4.37003 15.7788 4.7089 15.7788H7.13834C7.05316 16.0363 7.00316 16.2844 6.9865 16.5231C6.96983 16.7637 6.96983 17.0118 6.9865 17.2674C6.9865 18.2617 7.1013 19.1996 7.32906 20.0811C7.55682 20.9645 7.87347 21.7821 8.27899 22.5358H3.24049C2.32945 22.502 1.57025 22.1768 0.962889 21.5585C0.355528 20.9401 0.0351825 20.1714 0 19.2466V3.28922C0.0333308 2.36448 0.353677 1.5901 0.962889 0.96421C1.57025 0.338319 2.32945 0.016916 3.24049 0H17.3413C18.2523 0.016916 19.0152 0.338319 19.6318 0.96421C20.2484 1.5901 20.5651 2.36448 20.5817 3.28922V7.5558C20.0929 7.31522 19.5485 7.14418 18.9485 7.04268C18.3486 6.93931 17.7634 6.89796 17.1894 6.91487H17.0117C16.9265 6.74383 16.8135 6.61602 16.6691 6.52956C16.5247 6.4431 16.3691 6.40175 16.2006 6.40175H4.37929C4.12561 6.40175 3.90155 6.48821 3.70897 6.65925C3.51454 6.83029 3.41825 7.07839 3.41825 7.40356C3.41825 7.72872 3.51454 7.98246 3.70897 8.16101C3.9034 8.34145 4.12746 8.47302 4.37929 8.55948H11.8472C10.8677 9.12523 10.0196 9.81878 9.30299 10.6401C8.58452 11.4634 8.02531 12.4126 7.61978 13.4933H4.7089C4.30337 13.4895 4.01265 13.5967 3.83489 13.8109ZM21.9872 12.3073C23.2778 13.5572 23.95 15.1511 24 17.087C23.95 19.0399 23.2778 20.6676 21.9872 21.9701C20.6966 23.2726 19.0967 23.9493 17.1894 24C15.2655 23.9493 13.6619 23.2557 12.3787 21.9193C11.0954 20.583 10.4288 18.9722 10.3788 17.0889C10.4288 15.2394 11.0954 13.6662 12.3787 12.3731C13.6619 11.08 15.2655 10.4071 17.1894 10.3563C19.0967 10.4071 20.6966 11.0574 21.9872 12.3073ZM21.4187 19.0925C21.6039 18.9045 21.6965 18.6809 21.6965 18.4252C21.6965 18.1696 21.6039 17.9422 21.4187 17.7449C21.2335 17.5475 21.0132 17.4404 20.7614 17.4234H17.3431V13.7978C17.3431 13.5403 17.245 13.3185 17.0524 13.1306C16.858 12.9426 16.6339 12.8486 16.3821 12.8486C16.1302 12.8486 15.9043 12.9426 15.7118 13.1306C15.5173 13.3185 15.4118 13.5422 15.3951 13.7978V18.4234C15.4118 18.6809 15.5173 18.9027 15.7118 19.0906C15.9062 19.2786 16.1302 19.3819 16.3821 19.3989H20.7614C21.0132 19.3838 21.2317 19.2804 21.4187 19.0925Z" fill="#E67F44"/>
</svg>
