<svg width="21" height="21" viewBox="0 0 21 21" fill="none" xmlns="http://www.w3.org/2000/svg">
<path d="M15.9018 21H12.0947V16.9707C12.0947 16.6753 11.8547 16.4373 11.5567 16.4373H9.62837C9.33042 16.4373 9.09041 16.6794 9.09041 16.9707V21H4.97712C3.84328 21 2.92048 20.085 2.92048 18.9607V12.3054L0.598993 11.5873L0.412777 11.4027C-0.137592 10.857 -0.137592 9.9748 0.412777 9.42907L9.50836 0.410317C9.7732 0.147714 10.1249 0 10.5015 0C10.8781 0 11.2298 0.143611 11.4947 0.410317L20.5902 9.43318C20.8551 9.69578 21.0041 10.0487 20.9999 10.4179C20.9999 10.7913 20.8509 11.1401 20.5861 11.4027L20.3999 11.5873L17.9501 12.3095V18.9607C17.9543 20.085 17.0356 21 15.9018 21Z" fill="#E67F44"/>
</svg>
