<svg width="21" height="23" viewBox="0 0 21 23" fill="none" xmlns="http://www.w3.org/2000/svg">
<path d="M15.0769 9.84141C14.9124 9.84141 14.6931 9.78658 14.5286 9.67693L5.53695 4.52315C4.98868 4.19419 4.8242 3.53626 5.15316 3.04281C5.48213 2.49454 6.14005 2.33006 6.6335 2.65902L15.6252 7.8128C16.1735 8.14176 16.3379 8.79969 16.009 9.29314C15.8445 9.67693 15.4607 9.84141 15.0769 9.84141Z" fill="#E77F44"/>
<path d="M10.4172 22.8904C9.86893 22.8904 9.32066 22.726 8.82721 22.4518L1.58999 18.3398C0.603102 17.7915 -2.57003e-08 16.7498 0 15.5984V7.31946C0 6.16808 0.603102 5.12636 1.58999 4.57809L8.82721 0.411205C9.8141 -0.137068 11.0203 -0.137068 12.0072 0.411205L19.2444 4.57809C20.2313 5.12636 20.8344 6.16808 20.8344 7.31946V15.5984C20.8344 16.7498 20.2313 17.7915 19.2444 18.3398L12.0072 22.4518C11.5138 22.726 10.9655 22.8904 10.4172 22.8904ZM10.4172 2.16568C10.2527 2.16568 10.0882 2.22051 9.92376 2.27534L2.68654 6.44222C2.35758 6.6067 2.1931 6.93567 2.1931 7.31946V15.5984C2.1931 15.9274 2.35758 16.2563 2.68654 16.4208L9.92376 20.5877C10.2527 20.7522 10.5817 20.7522 10.9107 20.5877L18.1479 16.4208C18.422 16.2563 18.6413 15.9274 18.6413 15.5984V7.31946C18.6413 6.99049 18.4768 6.66153 18.1479 6.49705L10.9107 2.33016C10.7462 2.22051 10.5817 2.16568 10.4172 2.16568Z" fill="#E77F44"/>
<path d="M10.4169 12.5281C10.2524 12.5281 10.0331 12.4732 9.86863 12.3636L0.822111 7.15499C0.273837 6.82603 0.109354 6.1681 0.438319 5.67465C0.767283 5.12638 1.42521 4.96189 1.91866 5.29086L10.4169 10.2253L18.9152 5.29086C19.4634 4.96189 20.1214 5.1812 20.3955 5.67465C20.7245 6.22292 20.5051 6.88085 20.0117 7.15499L10.9652 12.4184C10.8007 12.5281 10.5814 12.5281 10.4169 12.5281Z" fill="#E77F44"/>
</svg>
