<svg width="20" height="22" viewBox="0 0 20 22" fill="none" xmlns="http://www.w3.org/2000/svg">
<path d="M16.2119 11.9649C15.8628 11.8949 15.5076 11.8598 15.1515 11.8601C13.4298 11.8601 11.8982 12.6727 10.9236 13.9339C10.575 13.4429 9.95394 13.0691 8.99879 12.7471C7.74109 12.2942 7.14182 11.9755 7.14182 11.3878C7.14182 11.1633 7.24557 10.4294 8.57697 10.4294L8.63515 10.4299L8.68897 10.4294C9.5103 10.4294 10.1139 10.609 10.5314 10.764L10.8335 9.63798C10.3084 9.41828 9.69551 9.2966 8.97115 9.26618L8.78303 9.25749V8.05615H7.85115V9.32799L7.68679 9.35793C6.21527 9.62446 5.33673 10.4709 5.33673 11.6196C5.33673 12.706 6.09551 13.4047 7.87685 13.9581C8.9057 14.2797 9.59224 14.6355 9.59224 15.3323C9.59224 15.9754 8.9663 16.3738 7.95927 16.3738H7.87248C6.92461 16.3738 6.11879 16.0904 5.62327 15.8605L5.28145 17.0928C5.86327 17.3632 6.74521 17.5573 7.58448 17.592L7.77939 17.5998V18.8981H8.71273V17.5254L8.87709 17.4984C9.20128 17.4467 9.51753 17.354 9.81818 17.2226C9.82863 18.4852 10.2921 19.7023 11.1248 20.6543C10.2841 20.7663 9.38424 20.8122 8.45236 20.8122C3.94618 20.8122 0 19.7948 0 15.3294C0 11.2811 2.11297 8.20439 4.59879 6.62642H12.2608C14.0703 7.77079 15.4992 9.66743 16.2119 11.9649ZM12.3345 5.52069C12.3345 5.74183 12.1314 5.92145 11.8827 5.92145H4.91055C4.66085 5.92145 4.45721 5.74183 4.45721 5.52069C4.45721 5.29857 4.66085 5.11895 4.91055 5.11895H11.8827C12.1324 5.11895 12.3345 5.29906 12.3345 5.52069ZM11.5476 4.8896L5.17188 4.90891C4.86061 4.90891 3.54085 3.34157 3.54085 2.14023C3.54085 0.689252 4.73309 0.814794 5.648 0.80562C6.43103 0.797894 7.24945 -0.341158 7.84242 0.102584C8.66861 0.720637 8.86206 2.17886 9.07636 2.17886C9.44194 2.17886 9.06667 0.278826 10.8815 0.278826C12.6948 0.278826 13.4187 0.708566 13.1796 2.06394C12.9275 3.49511 11.8405 4.85097 11.5476 4.8896ZM15.1515 22C12.4737 22 10.303 19.8383 10.303 17.1715C10.303 14.5047 12.4737 12.3429 15.1515 12.3429C17.8293 12.3429 20 14.5047 20 17.1715C20 19.8383 17.8293 22 15.1515 22ZM14.5522 18.4655C13.9821 18.6741 13.3072 18.8421 12.5392 18.9696L12.609 19.5085C13.3362 19.3752 13.9821 19.2014 14.5522 18.9812V18.4655ZM13.4352 14.3168C13.2257 14.9542 12.9871 15.5394 12.7079 16.0609C12.6381 16.1594 12.5624 16.2289 12.481 16.2637L12.6148 16.762C12.9115 16.7214 13.1966 16.6809 13.4759 16.6461C13.2082 17.1155 12.9872 17.4457 12.8126 17.6369C12.7428 17.7007 12.6613 17.7528 12.5624 17.7934L12.7137 18.2917C13.2722 18.2222 13.8657 18.0773 14.4941 17.8687V17.3762C14.1101 17.5037 13.7377 17.608 13.3653 17.6891C13.6911 17.2719 14.0868 16.6114 14.5581 15.7075L14.0635 15.522C13.953 15.7422 13.8482 15.9566 13.7435 16.1536C13.5341 16.1826 13.3304 16.2058 13.1268 16.2289C13.4061 15.7944 13.6853 15.2265 13.9646 14.5254L13.4352 14.3168ZM17.3857 15.3308L15.9952 15.522V14.3516H15.4424V15.5974L14.5988 15.719L14.6802 16.2289L15.4541 16.1188C15.4657 16.3506 15.4773 16.5708 15.5006 16.7852L14.4999 16.9416L14.5755 17.4631L15.5704 17.3067C15.5937 17.4341 15.617 17.5616 15.6461 17.6833C15.7159 17.973 15.7973 18.2395 15.9021 18.4829C15.4795 18.7918 15.0074 19.0269 14.5057 19.1782L14.8257 19.6186C15.302 19.4741 15.7504 19.2508 16.1522 18.958C16.1813 19.0044 16.2162 19.0565 16.257 19.1087C16.5188 19.4563 16.7981 19.6359 17.089 19.6417C17.4148 19.6417 17.6592 19.2651 17.8337 18.5235L17.3624 18.2106C17.2693 18.761 17.1588 19.0391 17.025 19.0391C16.8853 19.0391 16.7282 18.9001 16.5537 18.6335C16.8911 18.3322 17.1995 17.9672 17.4904 17.55L17.0541 17.2545C16.845 17.5704 16.6011 17.8619 16.3268 18.1237C16.2442 17.886 16.1819 17.6417 16.1406 17.3936L16.1173 17.2255L17.6242 16.988L17.5428 16.4665L16.0533 16.6983C16.0312 16.4805 16.0157 16.2622 16.0068 16.0435L17.4613 15.8407L17.3857 15.3308ZM16.6468 14.3284L16.2279 14.595C16.4955 14.8557 16.7108 15.0933 16.8679 15.3134L17.2984 15.0121C17.1472 14.8209 16.9261 14.595 16.6468 14.3284Z" fill="#E77F44"/>
</svg>
