<svg width="28" height="19" viewBox="0 0 28 19" fill="none" xmlns="http://www.w3.org/2000/svg">
<path d="M17.8943 13.5098C16.2796 12.7388 16.901 13.3285 14.9191 12.5401C12.9368 11.7526 12.4675 11.4949 12.4675 11.4949L12.4499 9.68876C12.4499 9.68876 13.1922 9.14801 13.424 7.43972C13.8872 7.56837 14.0445 6.91837 14.0695 6.50332C14.0971 6.10219 14.3437 4.85155 13.7763 4.96333C13.8924 4.12858 13.9831 3.37356 13.9419 2.97411C13.8004 1.57163 12.7895 0.106716 10.238 0C8.06904 0.107137 6.66074 1.57247 6.51877 2.97538C6.47802 3.37483 6.56127 4.129 6.67695 4.96543C6.11039 4.85239 6.35402 6.10514 6.37899 6.50585C6.40616 6.9209 6.55952 7.573 7.02443 7.44436C7.25491 9.15265 7.99762 9.69761 7.99762 9.69761L7.97922 11.513C7.97922 11.513 7.50949 11.7876 5.52717 12.5756C3.54486 13.3647 4.16663 12.7392 2.55195 13.5098C0 14.7284 0 18.0788 0 18.0788H0.000876356L0.000438178 18.0805C0.000438178 18.5879 0.429414 19 0.958733 19H19.4875C19.7412 19.0002 19.9846 18.9035 20.1643 18.7311C20.344 18.5587 20.4452 18.3247 20.4458 18.0805V18.0779H20.4463C20.4458 18.0779 20.4458 14.728 17.8943 13.5098ZM28 18.1615C28 18.1615 28 15.1135 25.679 14.005C24.2093 13.3036 24.7754 13.8401 22.9715 13.1226C21.1679 12.406 20.7411 12.1719 20.7411 12.1719L20.7254 10.5286C20.7254 10.5286 21.4006 10.0367 21.6109 8.48283C22.0329 8.59967 22.1757 8.00872 22.1985 7.63079C22.2235 7.26593 22.4478 6.12834 21.9321 6.22957C22.0377 5.46991 22.1205 4.78322 22.0828 4.41962C21.9545 3.14368 21.0343 1.81121 18.7137 1.71377C16.7401 1.81121 15.4589 3.14452 15.3296 4.42047C15.2928 4.78406 15.3686 5.47033 15.4742 6.23126C14.9581 6.12834 15.1807 7.26804 15.203 7.6329C15.2284 8.01083 15.3673 8.60388 15.7906 8.48662C16.0005 10.041 16.6762 10.5366 16.6762 10.5366L16.6591 12.182C17.2725 12.3216 17.3549 12.2086 18.5914 12.7995C21.4852 14.1809 21.4852 17.9801 21.4852 17.9801H21.4843V17.9826C21.484 18.22 21.3995 18.4502 21.2447 18.6351C21.09 18.82 20.8743 18.9484 20.6334 18.9992H27.128C27.6096 18.9992 28 18.6246 28 18.1627V18.1615Z" fill="#E77F44"/>
</svg>
