<svg width="33" height="22" viewBox="0 0 33 22" fill="none" xmlns="http://www.w3.org/2000/svg">
<path d="M21.0897 15.643C19.1867 14.7502 19.919 15.433 17.5832 14.5201C15.2469 13.6083 14.6938 13.3099 14.6938 13.3099L14.6732 11.2186C14.6732 11.2186 15.548 10.5924 15.8212 8.61441C16.367 8.76337 16.5524 8.01074 16.5819 7.53016C16.6144 7.06569 16.9051 5.61758 16.2364 5.74701C16.3732 4.78046 16.4801 3.90623 16.4316 3.44371C16.2648 1.81978 15.0734 0.123565 12.0662 0C9.50994 0.124054 7.85016 1.82076 7.68284 3.44518C7.63481 3.90769 7.73293 4.78095 7.86927 5.74945C7.20153 5.61856 7.48866 7.06911 7.5181 7.53309C7.55012 8.01367 7.73086 8.76874 8.27879 8.61978C8.55043 10.5978 9.42577 11.2288 9.42577 11.2288L9.40408 13.3309C9.40408 13.3309 8.85047 13.6488 6.51417 14.5612C4.17787 15.475 4.91067 14.7507 3.00765 15.643C0 17.054 0 20.9333 0 20.9333H0.00103285L0.000516424 20.9353C0.000516424 21.5228 0.506095 22 1.12994 22H22.9674C23.2664 22.0003 23.5533 21.8883 23.7651 21.6886C23.9768 21.489 24.0962 21.2181 24.0969 20.9353V20.9324H24.0974C24.0969 20.9324 24.0969 17.0535 21.0897 15.643ZM33 21.0291C33 21.0291 33 17.4999 30.2645 16.2164C28.5324 15.4042 29.1996 16.0254 27.0735 15.1946C24.9479 14.3648 24.4449 14.0938 24.4449 14.0938L24.4263 12.191C24.4263 12.191 25.2221 11.6215 25.47 9.82222C25.9673 9.95751 26.1357 9.27326 26.1625 8.83565C26.192 8.41319 26.4564 7.09597 25.8486 7.21319C25.973 6.33358 26.0706 5.53846 26.0262 5.11746C25.8749 3.64005 24.7904 2.09719 22.0554 1.98437C19.7295 2.09719 18.2194 3.64103 18.0671 5.11844C18.0237 5.53944 18.113 6.33407 18.2375 7.21514C17.6292 7.09597 17.8915 8.41563 17.9178 8.83809C17.9478 9.2757 18.1115 9.96239 18.6104 9.82662C18.8577 11.6264 19.6541 12.2002 19.6541 12.2002L19.6339 14.1055C20.3569 14.2672 20.454 14.1363 21.9113 14.8205C25.3218 16.42 25.3218 20.819 25.3218 20.819H25.3208V20.822C25.3204 21.0969 25.2208 21.3634 25.0384 21.5775C24.8561 21.7915 24.6018 21.9403 24.3179 21.999H31.9723C32.5399 21.999 33 21.5653 33 21.0305V21.0291Z" fill="white"/>
</svg>
